<svg id="visual" viewBox="0 0 960 540" width="960" height="540" xmlns="http://www.w3.org/2000/svg" xmlns:xlink="http://www.w3.org/1999/xlink" version="1.1"><g transform="translate(30.20947244498271 594.404092301064)"><path d="M180.2 -248.4C213.5 -186.9 206.4 -111 228.2 -33.5C249.9 44.1 300.3 123.3 283.1 173.1C265.9 223 181 243.5 108 249.6C35.1 255.6 -25.9 247.1 -99.9 236.6C-174 226.1 -261.1 213.6 -306.3 163.2C-351.6 112.9 -355 24.9 -336.5 -55.8C-318 -136.4 -277.6 -209.5 -217.9 -266.3C-158.1 -323.1 -79.1 -363.6 -2.8 -360.2C73.5 -356.9 147 -309.8 180.2 -248.4" fill="none" stroke="#fed18d" stroke-width="2"></path></g></svg>