<svg id="visual" viewBox="0 0 960 540" width="960" height="540" xmlns="http://www.w3.org/2000/svg" xmlns:xlink="http://www.w3.org/1999/xlink" version="1.1"><g><g transform="translate(587 93)"><path d="M103.2 -31.5C119.7 17.1 109.2 76.5 73.5 102.7C37.9 129 -22.9 122.2 -61.1 92.4C-99.3 62.7 -114.9 10.2 -100.9 -35C-87 -80.2 -43.5 -118 -0.1 -118C43.4 -118 86.8 -80.1 103.2 -31.5Z" stroke="#000000" fill="none" stroke-width="1"></path></g><g transform="translate(933 496)"><path d="M84.5 -25C96.9 10.6 85.6 56.4 57 76.8C28.4 97.2 -17.5 92.2 -47.2 69.6C-76.9 46.9 -90.4 6.6 -79.8 -26.5C-69.3 -59.7 -34.6 -85.6 0.7 -85.8C36.1 -86 72.1 -60.6 84.5 -25Z" stroke="#000000" fill="none" stroke-width="1"></path></g><g transform="translate(385 471)"><path d="M71.7 -20.5C81.8 7.8 71.2 45.6 45.9 64.1C20.7 82.7 -19.2 82.1 -45.3 63C-71.3 43.9 -83.4 6.4 -73.5 -21.6C-63.7 -49.5 -31.8 -68 -0.5 -67.9C30.8 -67.7 61.6 -48.9 71.7 -20.5Z" stroke="#000000" fill="none" stroke-width="1"></path></g><g transform="translate(108 18)"><path d="M41.9 -13.4C46.6 0.8 37.4 19.8 23.4 29.3C9.3 38.8 -9.5 38.9 -21.7 30C-33.9 21.1 -39.4 3.2 -34.7 -11C-30 -25.3 -15 -35.9 1.8 -36.5C18.6 -37.1 37.3 -27.6 41.9 -13.4Z" stroke="#000000" fill="none" stroke-width="1"></path></g></g></svg>